<svg width="30" height="30" viewBox="0 0 24 24" fill="none" xmlns="http://www.w3.org/2000/svg">
  <circle cx="12" cy="12" r="3" stroke="black" stroke-width="2"/>
  <path d="M19.4 15a7.3 7.3 0 0 0 .1-2l2.1-1.2a1 1 0 0 0 .4-1.3l-2-3.5a1 1 0 0 0-1.2-.5l-2.3.9a7.3 7.3 0 0 0-1.7-1L14 3.2a1 1 0 0 0-1-1h-4a1 1 0 0 0-1 1l-.4 2.2a7.3 7.3 0 0 0-1.7 1L3.6 5.5a1 1 0 0 0-1.2.5l-2 3.5a1 1 0 0 0 .4 1.3l2.1 1.2a7.3 7.3 0 0 0 .1 2L.8 16a1 1 0 0 0-.4 1.3l2 3.5a1 1 0 0 0 1.2.5l2.3-.9a7.3 7.3 0 0 0 1.7 1l.4 2.2a1 1 0 0 0 1 1h4a1 1 0 0 0 1-1l.4-2.2a7.3 7.3 0 0 0 1.7-1l2.3.9a1 1 0 0 0 1.2-.5l2-3.5a1 1 0 0 0-.4-1.3l-2.1-1.2z" 
    stroke="black" stroke-width="2" fill="none"/>
</svg>
